<svg xmlns="http://www.w3.org/2000/svg" viewBox="0 0 64 64">
  <rect width="64" height="64" rx="12" fill="#1c1917"/>
  <g transform="translate(9.60,41.39) scale(0.025098,-0.025098)" fill="#f5f5f4">
    <path d="M307 -12Q230 -12 171.0 14.5Q112 41 78.0 90.5Q44 140 43 211H178Q180 162 213.5 128.5Q247 95 306 95Q357 95 387.0 119.5Q417 144 417 185Q417 228 390.5 252.0Q364 276 320.0 291.0Q276 306 226 323Q145 351 102.5 395.0Q60 439 60 512Q59 574 89.5 618.5Q120 663 173.0 687.5Q226 712 295 712Q365 712 418.5 687.0Q472 662 502.5 617.0Q533 572 535 510H398Q397 547 369.5 575.5Q342 604 293 604Q251 605 222.5 583.5Q194 562 194 521Q194 486 216.0 465.5Q238 445 276.0 431.0Q314 417 363 401Q415 383 458.0 359.0Q501 335 527.0 295.5Q553 256 553 194Q553 139 525.0 92.0Q497 45 442.0 16.5Q387 -12 307 -12Z"/>
    <path transform="translate(597,0)" d="M231 0V597H27V700H564V597H359V0Z"/>
    <path transform="translate(1188,0)" d="M307 -12Q230 -12 171.0 14.5Q112 41 78.0 90.5Q44 140 43 211H178Q180 162 213.5 128.5Q247 95 306 95Q357 95 387.0 119.5Q417 144 417 185Q417 228 390.5 252.0Q364 276 320.0 291.0Q276 306 226 323Q145 351 102.5 395.0Q60 439 60 512Q59 574 89.5 618.5Q120 663 173.0 687.5Q226 712 295 712Q365 712 418.5 687.0Q472 662 502.5 617.0Q533 572 535 510H398Q397 547 369.5 575.5Q342 604 293 604Q251 605 222.5 583.5Q194 562 194 521Q194 486 216.0 465.5Q238 445 276.0 431.0Q314 417 363 401Q415 383 458.0 359.0Q501 335 527.0 295.5Q553 256 553 194Q553 139 525.0 92.0Q497 45 442.0 16.5Q387 -12 307 -12Z"/>
  </g>
</svg>
